<?xml version="1.0" encoding="UTF-8"?>
<svg width="412px" height="412px" viewBox="0 0 412 412" version="1.1" xmlns="http://www.w3.org/2000/svg" xmlns:xlink="http://www.w3.org/1999/xlink">
    <title>Fill 259 Copy 6</title>
    <defs>
        <linearGradient x1="23.3906874%" y1="138.917192%" x2="124.957657%" y2="16.0072358%" id="linearGradient-1">
            <stop stop-color="#2B4272" offset="0%"></stop>
            <stop stop-color="#1D0F41" offset="100%"></stop>
        </linearGradient>
    </defs>
    <g id="Page-1" stroke="none" stroke-width="1" fill="none" fillRule="evenodd">
        <path d="M205.716576,0 L206.012323,0 C319.628402,0 411.827481,92.0320651 412,205.704235 C412,209.721704 411.630316,213.615937 411.408506,217.559464 C411.235987,220.664992 411.260633,223.84446 410.94024,226.900694 C410.447329,231.85475 409.560089,236.710218 408.722139,241.565686 C408.401747,243.463508 408.229228,245.435272 407.834899,247.308447 C406.651911,253.174444 405.09924,258.917205 403.423342,264.586025 C403.201531,265.399378 403.053658,266.237377 402.807202,267.001436 C376.830771,350.899976 298.704313,411.876765 206.283424,412 L205.0265,412 C91.7308129,411.457765 0.0246455704,319.499641 0.0246455704,206.073941 L0,0.295764537 L205.716576,0 Z" id="Fill-259-Copy-6" fill="url(#linearGradient-1)" transform="translate(206.000000, 206.000000) rotate(-90.000000) translate(-206.000000, -206.000000) "></path>
    </g>
</svg>
