<?xml version="1.0" standalone="no"?>
<!DOCTYPE svg PUBLIC "-//W3C//DTD SVG 20010904//EN"
 "http://www.w3.org/TR/2001/REC-SVG-20010904/DTD/svg10.dtd">
<svg version="1.0" xmlns="http://www.w3.org/2000/svg"
 width="225.000000pt" height="225.000000pt" viewBox="0 0 225.000000 225.000000"
 preserveAspectRatio="xMidYMid meet">
<metadata>
Created by potrace 1.16, written by Peter Selinger 2001-2019
</metadata>
<g transform="translate(0.000000,225.000000) scale(0.100000,-0.100000)"
fill="#b74ff888" stroke="none">
<path d="M1320 2241 c0 -5 -13 -11 -28 -14 -55 -11 -112 -94 -112 -162 1 -38
38 -102 76 -131 l37 -29 309 -3 308 -3 0 -655 c0 -360 -3 -654 -7 -654 -4 0
-309 301 -678 669 -575 575 -676 671 -710 680 -51 14 -328 14 -378 0 -46 -12
-106 -70 -114 -110 -3 -16 -9 -29 -14 -29 -5 0 -9 -9 -9 -20 0 -11 5 -20 10
-20 6 0 10 -6 10 -13 0 -29 34 -79 68 -102 33 -21 53 -24 178 -30 l141 -7 236
-237 c130 -130 240 -239 243 -243 4 -4 -182 -197 -412 -428 -230 -231 -428
-437 -438 -458 -38 -74 -39 -76 -27 -80 6 -2 11 -13 11 -24 0 -32 37 -85 76
-109 48 -29 121 -29 166 1 18 13 221 210 450 439 230 228 420 413 422 410 3
-2 198 -196 433 -431 365 -364 434 -428 468 -437 78 -20 163 20 196 93 18 39
19 87 19 1020 0 976 0 980 -21 1023 -16 32 -35 52 -73 73 l-51 30 -392 0
c-218 0 -393 -4 -393 -9z"/>
</g>
</svg>
