<svg width="1022" height="220" viewBox="0 0 1022 220" fill="none" xmlns="http://www.w3.org/2000/svg">
<path d="M191.8 216V216.75H192.55V216H191.8ZM191.8 15.9H192.55V15.15H191.8V15.9ZM108.1 15.9V15.15H107.576L107.396 15.6424L108.1 15.9ZM73 111.9L72.2956 112.158L73 114.084L73.7044 112.158L73 111.9ZM37.9 15.9L38.6044 15.6424L38.4243 15.15H37.9V15.9ZM-45.8 15.9V15.15H-46.55V15.9H-45.8ZM-45.8 216H-46.55V216.75H-45.8V216ZM14.8 216V216.75H15.55V216H14.8ZM14.8 95.7L15.503 95.4388L14.05 95.7H14.8ZM59.5 216L58.797 216.261L58.9786 216.75H59.5V216ZM86.5 216V216.75H87.0214L87.203 216.261L86.5 216ZM131.2 95.7H131.95L130.497 95.4388L131.2 95.7ZM131.2 216H130.45V216.75H131.2V216ZM192.55 216V15.9H191.05V216H192.55ZM191.8 15.15H108.1V16.65H191.8V15.15ZM107.396 15.6424L72.2956 111.642L73.7044 112.158L108.804 16.1575L107.396 15.6424ZM73.7044 111.642L38.6044 15.6424L37.1956 16.1575L72.2956 112.158L73.7044 111.642ZM37.9 15.15H-45.8V16.65H37.9V15.15ZM-46.55 15.9V216H-45.05V15.9H-46.55ZM-45.8 216.75H14.8V215.25H-45.8V216.75ZM15.55 216V95.7H14.05V216H15.55ZM14.097 95.9612L58.797 216.261L60.203 215.739L15.503 95.4388L14.097 95.9612ZM59.5 216.75H86.5V215.25H59.5V216.75ZM87.203 216.261L131.903 95.9612L130.497 95.4388L85.797 215.739L87.203 216.261ZM130.45 95.7V216H131.95V95.7H130.45ZM131.2 216.75H191.8V215.25H131.2V216.75ZM278.925 216V216.75H279.675V216H278.925ZM278.925 71.1H279.675V70.35H278.925V71.1ZM224.925 71.1V70.35H224.175V71.1H224.925ZM224.925 216H224.175V216.75H224.925V216ZM251.925 61.35C269.139 61.35 282.975 47.5142 282.975 30.3H281.475C281.475 46.6858 268.311 59.85 251.925 59.85V61.35ZM282.975 30.3C282.975 13.0858 269.139 -0.750008 251.925 -0.750008V0.749992C268.311 0.749992 281.475 13.9142 281.475 30.3H282.975ZM251.925 -0.750008C234.711 -0.750008 220.875 13.0858 220.875 30.3H222.375C222.375 13.9142 235.539 0.749992 251.925 0.749992V-0.750008ZM220.875 30.3C220.875 47.5142 234.711 61.35 251.925 61.35V59.85C235.539 59.85 222.375 46.6858 222.375 30.3H220.875ZM279.675 216V71.1H278.175V216H279.675ZM278.925 70.35H224.925V71.85H278.925V70.35ZM224.175 71.1V216H225.675V71.1H224.175ZM224.925 216.75H278.925V215.25H224.925V216.75ZM412.215 121.2L411.735 121.776L412.426 122.352L412.868 121.568L412.215 121.2ZM432.015 86.1L432.668 86.4685L433.012 85.8596L432.429 85.4742L432.015 86.1ZM320.115 161.1L320.58 160.511L319.908 159.981L319.471 160.716L320.115 161.1ZM298.515 197.4L297.871 197.016L297.542 197.569L298.037 197.978L298.515 197.4ZM369.615 220.35C391.179 220.35 408.526 215.073 420.502 206.1C432.495 197.116 439.065 184.448 439.065 169.8H437.565C437.565 183.952 431.236 196.184 419.603 204.9C407.954 213.627 390.951 218.85 369.615 218.85V220.35ZM439.065 169.8C439.065 154.532 433.852 143.961 425.986 136.549C418.146 129.163 407.73 124.969 397.402 122.311C387.081 119.656 376.737 118.511 369.077 117.295C365.219 116.683 362.08 116.058 359.914 115.233C358.831 114.821 358.051 114.38 357.551 113.911C357.07 113.46 356.865 113.004 356.865 112.5H355.365C355.365 113.496 355.803 114.329 356.526 115.006C357.23 115.665 358.215 116.191 359.38 116.635C361.71 117.522 364.992 118.166 368.841 118.777C376.593 120.007 386.799 121.132 397.028 123.764C407.25 126.394 417.384 130.506 424.957 137.641C432.504 144.751 437.565 154.918 437.565 169.8H439.065ZM356.865 112.5C356.865 111.303 357.932 109.918 360.267 108.787C362.544 107.685 365.802 106.95 369.615 106.95V105.45C365.628 105.45 362.136 106.215 359.613 107.438C357.148 108.632 355.365 110.397 355.365 112.5H356.865ZM369.615 106.95C386.224 106.95 402.858 114.378 411.735 121.776L412.695 120.624C403.573 113.022 386.606 105.45 369.615 105.45V106.95ZM412.868 121.568L432.668 86.4685L431.362 85.7315L411.562 120.832L412.868 121.568ZM432.429 85.4742C415.513 74.298 393.771 66.75 369.315 66.75V68.25C393.46 68.25 414.917 75.7019 431.602 86.7257L432.429 85.4742ZM369.315 66.75C327.036 66.75 303.765 90.3627 303.765 117H305.265C305.265 91.4373 327.595 68.25 369.315 68.25V66.75ZM303.765 117C303.765 132.195 308.98 142.546 316.855 149.693C324.7 156.812 335.12 160.694 345.445 163.105C355.752 165.513 366.115 166.483 373.754 167.691C377.608 168.3 380.736 168.964 382.89 169.879C385.069 170.803 385.965 171.851 385.965 173.1H387.465C387.465 170.899 385.793 169.481 383.476 168.498C381.135 167.504 377.842 166.819 373.989 166.209C366.216 164.98 356.028 164.037 345.786 161.645C335.56 159.256 325.431 155.45 317.863 148.582C310.325 141.741 305.265 131.805 305.265 117H303.765ZM385.965 173.1C385.965 173.881 385.788 174.58 385.393 175.201C384.997 175.824 384.351 176.416 383.338 176.931C381.286 177.975 377.831 178.65 372.315 178.65V180.15C377.899 180.15 381.644 179.475 384.018 178.269C385.217 177.659 386.09 176.901 386.659 176.006C387.23 175.107 387.465 174.119 387.465 173.1H385.965ZM372.315 178.65C364.335 178.65 354.227 176.354 344.669 172.919C335.111 169.484 326.193 164.943 320.58 160.511L319.65 161.689C325.437 166.257 334.519 170.866 344.162 174.331C353.804 177.796 364.095 180.15 372.315 180.15V178.65ZM319.471 160.716L297.871 197.016L299.16 197.784L320.76 161.484L319.471 160.716ZM298.037 197.978C313.803 211.015 342.786 220.35 369.615 220.35V218.85C343.045 218.85 314.428 209.585 298.993 196.822L298.037 197.978ZM561.094 121.2L560.613 121.776L561.305 122.352L561.747 121.568L561.094 121.2ZM580.894 86.1L581.547 86.4685L581.89 85.8596L581.307 85.4742L580.894 86.1ZM468.994 161.1L469.458 160.511L468.787 159.981L468.349 160.716L468.994 161.1ZM447.394 197.4L446.749 197.016L446.421 197.569L446.916 197.978L447.394 197.4ZM518.494 220.35C540.058 220.35 557.405 215.073 569.381 206.1C581.373 197.116 587.944 184.448 587.944 169.8H586.444C586.444 183.952 580.114 196.184 568.481 204.9C556.832 213.627 539.829 218.85 518.494 218.85V220.35ZM587.944 169.8C587.944 154.532 582.73 143.961 574.864 136.549C567.025 129.163 556.608 124.969 546.28 122.311C535.96 119.656 525.615 118.511 517.955 117.295C514.098 116.683 510.958 116.058 508.793 115.233C507.71 114.821 506.93 114.38 506.429 113.911C505.948 113.46 505.744 113.004 505.744 112.5H504.244C504.244 113.496 504.681 114.329 505.404 115.006C506.108 115.665 507.094 116.191 508.259 116.635C510.588 117.522 513.871 118.166 517.72 118.777C525.472 120.007 535.677 121.132 545.907 123.764C556.129 126.394 566.262 130.506 573.835 137.641C581.382 144.751 586.444 154.918 586.444 169.8H587.944ZM505.744 112.5C505.744 111.303 506.811 109.918 509.146 108.787C511.422 107.685 514.681 106.95 518.494 106.95V105.45C514.507 105.45 511.015 106.215 508.492 107.438C506.026 108.632 504.244 110.397 504.244 112.5H505.744ZM518.494 106.95C535.103 106.95 551.736 114.378 560.613 121.776L561.574 120.624C552.451 113.022 535.484 105.45 518.494 105.45V106.95ZM561.747 121.568L581.547 86.4685L580.24 85.7315L560.44 120.832L561.747 121.568ZM581.307 85.4742C564.392 74.298 542.649 66.75 518.194 66.75V68.25C542.338 68.25 563.795 75.7019 580.48 86.7257L581.307 85.4742ZM518.194 66.75C475.914 66.75 452.644 90.3627 452.644 117H454.144C454.144 91.4373 476.473 68.25 518.194 68.25V66.75ZM452.644 117C452.644 132.195 457.859 142.546 465.733 149.693C473.578 156.812 483.998 160.694 494.323 163.105C504.631 165.513 514.993 166.483 522.633 167.691C526.486 168.3 529.614 168.964 531.768 169.879C533.947 170.803 534.844 171.851 534.844 173.1H536.344C536.344 170.899 534.672 169.481 532.354 168.498C530.013 167.504 526.72 166.819 522.867 166.209C515.094 164.98 504.906 164.037 494.664 161.645C484.439 159.256 474.309 155.45 466.741 148.582C459.203 141.741 454.144 131.805 454.144 117H452.644ZM534.844 173.1C534.844 173.881 534.666 174.58 534.272 175.201C533.875 175.824 533.229 176.416 532.216 176.931C530.164 177.975 526.71 178.65 521.194 178.65V180.15C526.778 180.15 530.523 179.475 532.896 178.269C534.095 177.659 534.968 176.901 535.537 176.006C536.108 175.107 536.344 174.119 536.344 173.1H534.844ZM521.194 178.65C513.214 178.65 503.105 176.354 493.547 172.919C483.99 169.484 475.072 164.943 469.458 160.511L468.529 161.689C474.315 166.257 483.397 170.866 493.04 174.331C502.682 177.796 512.974 180.15 521.194 180.15V178.65ZM468.349 160.716L446.749 197.016L448.038 197.784L469.638 161.484L468.349 160.716ZM446.916 197.978C462.681 211.015 491.664 220.35 518.494 220.35V218.85C491.923 218.85 463.306 209.585 447.871 196.822L446.916 197.978ZM662.572 216V216.75H663.322V216H662.572ZM662.572 71.1H663.322V70.35H662.572V71.1ZM608.572 71.1V70.35H607.822V71.1H608.572ZM608.572 216H607.822V216.75H608.572V216ZM635.572 61.35C652.786 61.35 666.622 47.5142 666.622 30.3H665.122C665.122 46.6858 651.958 59.85 635.572 59.85V61.35ZM666.622 30.3C666.622 13.0858 652.786 -0.750008 635.572 -0.750008V0.749992C651.958 0.749992 665.122 13.9142 665.122 30.3H666.622ZM635.572 -0.750008C618.358 -0.750008 604.522 13.0858 604.522 30.3H606.022C606.022 13.9142 619.186 0.749992 635.572 0.749992V-0.750008ZM604.522 30.3C604.522 47.5142 618.358 61.35 635.572 61.35V59.85C619.186 59.85 606.022 46.6858 606.022 30.3H604.522ZM663.322 216V71.1H661.822V216H663.322ZM662.572 70.35H608.572V71.85H662.572V70.35ZM607.822 71.1V216H609.322V71.1H607.822ZM608.572 216.75H662.572V215.25H608.572V216.75ZM765.862 220.35C817.878 220.35 848.212 184.312 848.212 143.4H846.712C846.712 183.488 817.046 218.85 765.862 218.85V220.35ZM848.212 143.4C848.212 102.484 817.874 66.75 765.862 66.75V68.25C817.05 68.25 846.712 103.316 846.712 143.4H848.212ZM765.862 66.75C714.148 66.75 683.812 102.486 683.812 143.4H685.312C685.312 103.314 714.976 68.25 765.862 68.25V66.75ZM683.812 143.4C683.812 184.31 714.144 220.35 765.862 220.35V218.85C714.98 218.85 685.312 183.49 685.312 143.4H683.812ZM765.862 171.15C757.813 171.15 751.577 168.158 747.343 163.236C743.097 158.3 740.812 151.362 740.812 143.4H739.312C739.312 151.638 741.677 158.95 746.206 164.214C750.747 169.492 757.41 172.65 765.862 172.65V171.15ZM740.812 143.4C740.812 135.591 743.095 128.728 747.341 123.829C751.576 118.943 757.813 115.95 765.862 115.95V114.45C757.411 114.45 750.748 117.607 746.208 122.846C741.678 128.072 739.312 135.309 739.312 143.4H740.812ZM765.862 115.95C774.065 115.95 780.377 118.946 784.647 123.831C788.929 128.729 791.212 135.591 791.212 143.4H792.712C792.712 135.309 790.345 128.071 785.777 122.844C781.197 117.604 774.459 114.45 765.862 114.45V115.95ZM791.212 143.4C791.212 151.362 788.927 158.299 784.645 163.233C780.375 168.155 774.065 171.15 765.862 171.15V172.65C774.459 172.65 781.198 169.495 785.778 164.217C790.347 158.951 792.712 151.638 792.712 143.4H791.212ZM1021.51 216V216.75H1022.26V216H1021.51ZM923.414 87.6H922.664V89.5961L923.979 88.0939L923.414 87.6ZM923.414 71.1H924.164V70.35H923.414V71.1ZM869.414 71.1V70.35H868.664V71.1H869.414ZM869.414 216H868.664V216.75H869.414V216ZM923.414 216V216.75H924.164V216H923.414ZM923.414 126.6L922.852 126.104L922.664 126.316V126.6H923.414ZM967.514 216H966.764V216.75H967.514V216ZM1022.26 216V113.1H1020.76V216H1022.26ZM1022.26 113.1C1022.26 100.359 1018.55 88.7551 1010.51 80.3321C1002.46 71.9017 990.17 66.75 973.214 66.75V68.25C989.859 68.25 1001.72 73.2983 1009.42 81.3678C1017.13 89.4449 1020.76 100.641 1020.76 113.1H1022.26ZM973.214 66.75C947.487 66.75 931.385 77.3516 922.85 87.1061L923.979 88.0939C932.244 78.6484 947.941 68.25 973.214 68.25V66.75ZM924.164 87.6V71.1H922.664V87.6H924.164ZM923.414 70.35H869.414V71.85H923.414V70.35ZM868.664 71.1V216H870.164V71.1H868.664ZM869.414 216.75H923.414V215.25H869.414V216.75ZM924.164 216V126.6H922.664V216H924.164ZM923.977 127.096C928.431 122.048 934.542 115.95 946.514 115.95V114.45C933.887 114.45 927.398 120.952 922.852 126.104L923.977 127.096ZM946.514 115.95C952.87 115.95 957.904 117.356 961.348 120.48C964.778 123.592 966.764 128.531 966.764 135.9H968.264C968.264 128.269 966.201 122.858 962.356 119.37C958.525 115.894 953.059 114.45 946.514 114.45V115.95ZM966.764 135.9V216H968.264V135.9H966.764ZM967.514 216.75H1021.51V215.25H967.514V216.75Z" fill="url(#paint0_linear_409_4726)"/>
<defs>
<linearGradient id="paint0_linear_409_4726" x1="-94.3925" y1="145.5" x2="1411.15" y2="145.5" gradientUnits="userSpaceOnUse">
<stop stop-color="#B84FF8"/>
<stop offset="1" stop-color="#B84FF8" stop-opacity="0"/>
</linearGradient>
</defs>
</svg>
