<svg width="846" height="220" viewBox="0 0 846 220" fill="none" xmlns="http://www.w3.org/2000/svg">
<path d="M150.6 216V216.75H151.123L151.304 216.26L150.6 216ZM224.4 15.9L225.104 16.1595L225.476 15.15H224.4V15.9ZM155.7 15.9V15.15H155.153L154.986 15.6709L155.7 15.9ZM112.5 150.6L111.786 150.829L112.5 153.056L113.214 150.829L112.5 150.6ZM69.3 15.9L70.0142 15.6709L69.8471 15.15H69.3V15.9ZM0.6 15.9V15.15H-0.475996L-0.103668 16.1595L0.6 15.9ZM74.4 216L73.6963 216.26L73.8772 216.75H74.4V216ZM151.304 216.26L225.104 16.1595L223.696 15.6405L149.896 215.74L151.304 216.26ZM224.4 15.15H155.7V16.65H224.4V15.15ZM154.986 15.6709L111.786 150.371L113.214 150.829L156.414 16.129L154.986 15.6709ZM113.214 150.371L70.0142 15.6709L68.5858 16.129L111.786 150.829L113.214 150.371ZM69.3 15.15H0.6V16.65H69.3V15.15ZM-0.103668 16.1595L73.6963 216.26L75.1037 215.74L1.30367 15.6405L-0.103668 16.1595ZM74.4 216.75H150.6V215.25H74.4V216.75ZM289.796 216V216.75H290.546V216H289.796ZM289.796 71.1H290.546V70.35H289.796V71.1ZM235.796 71.1V70.35H235.046V71.1H235.796ZM235.796 216H235.046V216.75H235.796V216ZM262.796 61.35C280.01 61.35 293.846 47.5142 293.846 30.3H292.346C292.346 46.6858 279.182 59.85 262.796 59.85V61.35ZM293.846 30.3C293.846 13.0858 280.01 -0.750008 262.796 -0.750008V0.749992C279.182 0.749992 292.346 13.9142 292.346 30.3H293.846ZM262.796 -0.750008C245.582 -0.750008 231.746 13.0858 231.746 30.3H233.246C233.246 13.9142 246.41 0.749992 262.796 0.749992V-0.750008ZM231.746 30.3C231.746 47.5142 245.582 61.35 262.796 61.35V59.85C246.41 59.85 233.246 46.6858 233.246 30.3H231.746ZM290.546 216V71.1H289.046V216H290.546ZM289.796 70.35H235.796V71.85H289.796V70.35ZM235.046 71.1V216H236.546V71.1H235.046ZM235.796 216.75H289.796V215.25H235.796V216.75ZM423.086 121.2L422.606 121.776L423.297 122.352L423.74 121.568L423.086 121.2ZM442.886 86.1L443.54 86.4685L443.883 85.8596L443.3 85.4742L442.886 86.1ZM330.986 161.1L331.451 160.511L330.779 159.981L330.342 160.716L330.986 161.1ZM309.386 197.4L308.742 197.016L308.413 197.569L308.908 197.978L309.386 197.4ZM380.486 220.35C402.051 220.35 419.397 215.073 431.374 206.1C443.366 197.116 449.936 184.448 449.936 169.8H448.436C448.436 183.952 442.107 196.184 430.474 204.9C418.825 213.627 401.822 218.85 380.486 218.85V220.35ZM449.936 169.8C449.936 154.532 444.723 143.961 436.857 136.549C429.017 129.163 418.601 124.969 408.273 122.311C397.952 119.656 387.608 118.511 379.948 117.295C376.09 116.683 372.951 116.058 370.785 115.233C369.702 114.821 368.922 114.38 368.422 113.911C367.941 113.46 367.736 113.004 367.736 112.5H366.236C366.236 113.496 366.674 114.329 367.397 115.006C368.101 115.665 369.087 116.191 370.251 116.635C372.581 117.522 375.864 118.166 379.712 118.777C387.464 120.007 397.67 121.132 407.899 123.764C418.122 126.394 428.255 130.506 435.828 137.641C443.375 144.751 448.436 154.918 448.436 169.8H449.936ZM367.736 112.5C367.736 111.303 368.803 109.918 371.138 108.787C373.415 107.685 376.673 106.95 380.486 106.95V105.45C376.499 105.45 373.008 106.215 370.484 107.438C368.019 108.632 366.236 110.397 366.236 112.5H367.736ZM380.486 106.95C397.096 106.95 413.729 114.378 422.606 121.776L423.566 120.624C414.444 113.022 397.477 105.45 380.486 105.45V106.95ZM423.74 121.568L443.54 86.4685L442.233 85.7315L422.433 120.832L423.74 121.568ZM443.3 85.4742C426.384 74.298 404.642 66.75 380.186 66.75V68.25C404.331 68.25 425.788 75.7019 442.473 86.7257L443.3 85.4742ZM380.186 66.75C337.907 66.75 314.636 90.3627 314.636 117H316.136C316.136 91.4373 338.466 68.25 380.186 68.25V66.75ZM314.636 117C314.636 132.195 319.851 142.546 327.726 149.693C335.571 156.812 345.991 160.694 356.316 163.105C366.623 165.513 376.986 166.483 384.625 167.691C388.479 168.3 391.607 168.964 393.761 169.879C395.94 170.803 396.836 171.851 396.836 173.1H398.336C398.336 170.899 396.664 169.481 394.347 168.498C392.006 167.504 388.713 166.819 384.86 166.209C377.087 164.98 366.899 164.037 356.657 161.645C346.431 159.256 336.302 155.45 328.734 148.582C321.196 141.741 316.136 131.805 316.136 117H314.636ZM396.836 173.1C396.836 173.881 396.659 174.58 396.264 175.201C395.868 175.824 395.222 176.416 394.209 176.931C392.157 177.975 388.702 178.65 383.186 178.65V180.15C388.77 180.15 392.515 179.475 394.889 178.269C396.088 177.659 396.961 176.901 397.53 176.006C398.101 175.107 398.336 174.119 398.336 173.1H396.836ZM383.186 178.65C375.206 178.65 365.098 176.354 355.54 172.919C345.982 169.484 337.064 164.943 331.451 160.511L330.522 161.689C336.308 166.257 345.39 170.866 355.033 174.331C364.675 177.796 374.966 180.15 383.186 180.15V178.65ZM330.342 160.716L308.742 197.016L310.031 197.784L331.631 161.484L330.342 160.716ZM308.908 197.978C324.674 211.015 353.657 220.35 380.486 220.35V218.85C353.916 218.85 325.299 209.585 309.864 196.822L308.908 197.978ZM524.565 216V216.75H525.315V216H524.565ZM524.565 71.1H525.315V70.35H524.565V71.1ZM470.565 71.1V70.35H469.815V71.1H470.565ZM470.565 216H469.815V216.75H470.565V216ZM497.565 61.35C514.779 61.35 528.615 47.5142 528.615 30.3H527.115C527.115 46.6858 513.95 59.85 497.565 59.85V61.35ZM528.615 30.3C528.615 13.0858 514.779 -0.750008 497.565 -0.750008V0.749992C513.95 0.749992 527.115 13.9142 527.115 30.3H528.615ZM497.565 -0.750008C480.35 -0.750008 466.515 13.0858 466.515 30.3H468.015C468.015 13.9142 481.179 0.749992 497.565 0.749992V-0.750008ZM466.515 30.3C466.515 47.5142 480.35 61.35 497.565 61.35V59.85C481.179 59.85 468.015 46.6858 468.015 30.3H466.515ZM525.315 216V71.1H523.815V216H525.315ZM524.565 70.35H470.565V71.85H524.565V70.35ZM469.815 71.1V216H471.315V71.1H469.815ZM470.565 216.75H524.565V215.25H470.565V216.75ZM627.855 220.35C679.871 220.35 710.205 184.312 710.205 143.4H708.705C708.705 183.488 679.039 218.85 627.855 218.85V220.35ZM710.205 143.4C710.205 102.484 679.867 66.75 627.855 66.75V68.25C679.042 68.25 708.705 103.316 708.705 143.4H710.205ZM627.855 66.75C576.14 66.75 545.805 102.486 545.805 143.4H547.305C547.305 103.314 576.969 68.25 627.855 68.25V66.75ZM545.805 143.4C545.805 184.31 576.137 220.35 627.855 220.35V218.85C576.973 218.85 547.305 183.49 547.305 143.4H545.805ZM627.855 171.15C619.806 171.15 613.57 168.158 609.336 163.236C605.09 158.3 602.805 151.362 602.805 143.4H601.305C601.305 151.638 603.669 158.95 608.199 164.214C612.739 169.492 619.403 172.65 627.855 172.65V171.15ZM602.805 143.4C602.805 135.591 605.088 128.728 609.334 123.829C613.569 118.943 619.806 115.95 627.855 115.95V114.45C619.404 114.45 612.741 117.607 608.2 122.846C603.671 128.072 601.305 135.309 601.305 143.4H602.805ZM627.855 115.95C636.058 115.95 642.37 118.946 646.64 123.831C650.921 128.729 653.205 135.591 653.205 143.4H654.705C654.705 135.309 652.338 128.071 647.769 122.844C643.19 117.604 636.452 114.45 627.855 114.45V115.95ZM653.205 143.4C653.205 151.362 650.92 158.299 646.638 163.233C642.368 168.155 636.057 171.15 627.855 171.15V172.65C636.452 172.65 643.191 169.495 647.771 164.217C652.34 158.951 654.705 151.638 654.705 143.4H653.205ZM883.507 216V216.75H884.257V216H883.507ZM785.407 87.6H784.657V89.5961L785.972 88.0939L785.407 87.6ZM785.407 71.1H786.157V70.35H785.407V71.1ZM731.407 71.1V70.35H730.657V71.1H731.407ZM731.407 216H730.657V216.75H731.407V216ZM785.407 216V216.75H786.157V216H785.407ZM785.407 126.6L784.845 126.104L784.657 126.316V126.6H785.407ZM829.507 216H828.757V216.75H829.507V216ZM884.257 216V113.1H882.757V216H884.257ZM884.257 113.1C884.257 100.359 880.54 88.7551 872.5 80.3321C864.453 71.9017 852.163 66.75 835.207 66.75V68.25C851.851 68.25 863.712 73.2983 871.415 81.3678C879.125 89.4449 882.757 100.641 882.757 113.1H884.257ZM835.207 66.75C809.48 66.75 793.378 77.3516 784.843 87.1061L785.972 88.0939C794.236 78.6484 809.934 68.25 835.207 68.25V66.75ZM786.157 87.6V71.1H784.657V87.6H786.157ZM785.407 70.35H731.407V71.85H785.407V70.35ZM730.657 71.1V216H732.157V71.1H730.657ZM731.407 216.75H785.407V215.25H731.407V216.75ZM786.157 216V126.6H784.657V216H786.157ZM785.97 127.096C790.424 122.048 796.535 115.95 808.507 115.95V114.45C795.88 114.45 789.391 120.952 784.845 126.104L785.97 127.096ZM808.507 115.95C814.863 115.95 819.897 117.356 823.341 120.48C826.77 123.592 828.757 128.531 828.757 135.9H830.257C830.257 128.269 828.194 122.858 824.349 119.37C820.517 115.894 815.051 114.45 808.507 114.45V115.95ZM828.757 135.9V216H830.257V135.9H828.757ZM829.507 216.75H883.507V215.25H829.507V216.75Z" fill="url(#paint0_linear_409_4725)"/>
<defs>
<linearGradient id="paint0_linear_409_4725" x1="-17" y1="145.5" x2="1052" y2="145.5" gradientUnits="userSpaceOnUse">
<stop stop-color="#B84FF8" stop-opacity="0"/>
<stop offset="1" stop-color="#B84FF8"/>
</linearGradient>
</defs>
</svg>
