<svg width="794" height="368" viewBox="0 0 794 368" fill="none" xmlns="http://www.w3.org/2000/svg">
<path d="M196.007 158V158.336H196.261L196.331 158.093L196.007 158ZM241.083 0.587986L241.407 0.680571L241.529 0.251677H241.083V0.587986ZM187.511 0.587986V0.251677H187.238L187.182 0.519396L187.511 0.587986ZM167.451 96.876L167.125 96.9568L167.78 96.9446L167.451 96.876ZM143.615 0.587986L143.942 0.507174L143.878 0.251677H143.615V0.587986ZM107.743 0.587986V0.251677H107.48L107.417 0.507174L107.743 0.587986ZM83.9072 96.876L83.5782 96.9454L84.2337 96.9568L83.9072 96.876ZM63.6112 0.587986L63.9403 0.518621L63.8841 0.251677H63.6112V0.587986ZM10.2752 0.587986V0.251677H9.8291L9.95192 0.680571L10.2752 0.587986ZM55.3512 158L55.0279 158.093L55.0977 158.336H55.3512V158ZM105.383 158V158.336H105.652L105.711 158.075L105.383 158ZM125.679 68.792L126.007 68.7174H125.351L125.679 68.792ZM145.975 158L145.647 158.075L145.707 158.336H145.975V158ZM196.331 158.093L241.407 0.680571L240.76 0.495403L195.684 157.907L196.331 158.093ZM241.083 0.251677H187.511V0.924297H241.083V0.251677ZM187.182 0.519396L167.122 96.8074L167.78 96.9446L187.84 0.656578L187.182 0.519396ZM167.778 96.7952L143.942 0.507174L143.289 0.6688L167.125 96.9568L167.778 96.7952ZM143.615 0.251677H107.743V0.924297H143.615V0.251677ZM107.417 0.507174L83.5808 96.7952L84.2337 96.9568L108.07 0.6688L107.417 0.507174ZM84.2363 96.8066L63.9403 0.518621L63.2822 0.657352L83.5782 96.9454L84.2363 96.8066ZM63.6112 0.251677H10.2752V0.924297H63.6112V0.251677ZM9.95192 0.680571L55.0279 158.093L55.6746 157.907L10.5986 0.495403L9.95192 0.680571ZM55.3512 158.336H105.383V157.664H55.3512V158.336ZM105.711 158.075L126.007 68.8666L125.351 68.7174L105.055 157.925L105.711 158.075ZM125.351 68.8666L145.647 158.075L146.303 157.925L126.007 68.7174L125.351 68.8666ZM145.975 158.336H196.007V157.664H145.975V158.336ZM346.746 146.672L346.964 146.928L347.191 146.734L347.026 146.485L346.746 146.672ZM329.282 120.476L329.562 120.289L329.349 119.97L329.06 120.223L329.282 120.476ZM278.542 114.104V113.768H278.08L278.222 114.207L278.542 114.104ZM355.95 114.104V114.44H356.286V114.104H355.95ZM315.594 87.2V87.5363H316.02L315.921 87.1221L315.594 87.2ZM278.07 87.2L277.746 87.1115L277.63 87.5363H278.07V87.2ZM298.13 161.168C306.653 161.168 316.005 160.044 324.65 157.705C333.291 155.367 341.249 151.81 346.964 146.928L346.528 146.416C340.915 151.21 333.061 154.733 324.474 157.056C315.891 159.378 306.599 160.496 298.13 160.496V161.168ZM347.026 146.485L329.562 120.289L329.002 120.663L346.466 146.859L347.026 146.485ZM329.06 120.223C326.289 122.648 321.396 124.638 316.36 126.022C311.334 127.404 306.233 128.164 303.086 128.164V128.836C306.311 128.836 311.476 128.062 316.539 126.671C321.592 125.282 326.611 123.26 329.503 120.729L329.06 120.223ZM303.086 128.164C289.279 128.164 281.169 121.152 278.862 114.001L278.222 114.207C280.635 121.688 289.045 128.836 303.086 128.836V128.164ZM278.542 114.44H355.95V113.768H278.542V114.44ZM356.286 114.104V105.372H355.614V114.104H356.286ZM356.286 105.372C356.286 85.2387 349.83 69.1026 339.141 57.9978C328.452 46.8928 313.553 40.8437 296.714 40.8437V41.5163C313.387 41.5163 328.106 47.5032 338.657 58.4642C349.208 69.4254 355.614 85.3853 355.614 105.372H356.286ZM296.714 40.8437C259.716 40.8437 234.31 67.6588 234.31 100.888H234.982C234.982 68.0372 260.08 41.5163 296.714 41.5163V40.8437ZM234.31 100.888C234.31 119.739 241.307 134.818 252.799 145.181C264.287 155.541 280.243 161.168 298.13 161.168V160.496C280.381 160.496 264.595 154.913 253.25 144.682C241.909 134.454 234.982 119.561 234.982 100.888H234.31ZM315.594 86.8637H278.07V87.5363H315.594V86.8637ZM278.394 87.2885C279.093 84.7257 280.487 81.3666 283.29 78.6505C286.084 75.9424 290.305 73.8483 296.714 73.8483V73.1757C290.143 73.1757 285.75 75.3296 282.821 78.1675C279.901 80.9974 278.463 84.4823 277.746 87.1115L278.394 87.2885ZM296.714 73.8483C303.479 73.8483 307.817 76.0031 310.609 78.7378C313.41 81.4804 314.685 84.8358 315.267 87.2779L315.921 87.1221C315.323 84.6082 314.002 81.1196 311.08 78.2572C308.149 75.3869 303.637 73.1757 296.714 73.1757V73.8483ZM542.667 158V158.336H543.003V158H542.667ZM432.927 58.408L432.717 58.1454L432.496 58.3221L432.632 58.57L432.927 58.408ZM447.323 84.604L447.028 84.766L447.216 85.1084L447.527 84.8713L447.323 84.604ZM500.187 99.472L499.923 99.6801L500.523 100.442V99.472H500.187ZM500.187 147.144H500.523V146.18L499.924 146.935L500.187 147.144ZM500.187 158H499.851V158.336H500.187V158ZM500.187 120.712H500.523V120.605L500.462 120.518L500.187 120.712ZM500.187 127.084L500.462 127.278L500.523 127.191V127.084H500.187ZM543.003 158V89.088H542.331V158H543.003ZM543.003 89.088C543.003 69.9966 536.059 57.9084 525.512 50.609C514.988 43.3249 500.924 40.8437 486.735 40.8437V41.5163C500.866 41.5163 514.768 43.9911 525.13 51.162C535.469 58.3176 542.331 70.1834 542.331 89.088H543.003ZM486.735 40.8437C469.456 40.8437 448.134 45.8119 432.717 58.1454L433.137 58.6706C448.4 46.4601 469.558 41.5163 486.735 41.5163V40.8437ZM432.632 58.57L447.028 84.766L447.618 84.442L433.222 58.246L432.632 58.57ZM447.527 84.8713C456.441 78.0686 468.406 73.8483 478.947 73.8483V73.1757C468.248 73.1757 456.141 77.4514 447.119 84.3366L447.527 84.8713ZM478.947 73.8483C485.864 73.8483 491.099 75.3731 494.594 77.8571C498.079 80.3343 499.851 83.7745 499.851 87.672H500.523C500.523 83.5455 498.637 79.9057 494.983 77.3089C491.339 74.7189 485.953 73.1757 478.947 73.1757V73.8483ZM499.851 87.672V99.472H500.523V87.672H499.851ZM500.451 99.2639C494.222 91.3579 480.643 86.6277 465.731 86.6277V87.3003C480.555 87.3003 493.88 92.0101 499.923 99.6801L500.451 99.2639ZM465.731 86.6277C457.191 86.6277 447.319 88.6428 439.574 94.2435C431.811 99.8563 426.219 109.046 426.219 123.308H426.891C426.891 109.25 432.391 100.268 439.968 94.7885C447.562 89.2971 457.279 87.3003 465.731 87.3003V86.6277ZM426.219 123.308C426.219 136.396 431.816 145.872 439.561 152.068C447.296 158.256 457.166 161.168 465.731 161.168V160.496C457.304 160.496 447.586 157.626 439.981 151.542C432.386 145.466 426.891 136.18 426.891 123.308H426.219ZM465.731 161.168C479.957 161.168 493.995 155.483 500.45 147.353L499.924 146.935C493.635 154.853 479.825 160.496 465.731 160.496V161.168ZM499.851 147.144V158H500.523V147.144H499.851ZM500.187 158.336H542.667V157.664H500.187V158.336ZM483.431 132.884C479.915 132.884 476.258 132.355 473.492 130.972C470.745 129.598 468.899 127.399 468.899 124.016H468.227C468.227 127.713 470.275 130.116 473.192 131.574C476.09 133.023 479.867 133.556 483.431 133.556V132.884ZM468.899 124.016C468.899 120.631 470.748 118.371 473.497 116.939C476.263 115.499 479.92 114.912 483.431 114.912V114.24C479.862 114.24 476.085 114.833 473.187 116.343C470.272 117.861 468.227 120.321 468.227 124.016H468.899ZM483.431 114.912C486.702 114.912 490.146 115.438 493.116 116.458C496.094 117.479 498.554 118.982 499.912 120.906L500.462 120.518C498.988 118.43 496.374 116.865 493.334 115.821C490.286 114.776 486.768 114.24 483.431 114.24V114.912ZM499.851 120.712V127.084H500.523V120.712H499.851ZM499.912 126.89C498.554 128.814 496.094 130.317 493.116 131.338C490.146 132.358 486.702 132.884 483.431 132.884V133.556C486.768 133.556 490.286 133.02 493.334 131.975C496.374 130.931 498.988 129.366 500.462 127.278L499.912 126.89ZM610.459 158V158.336H610.795V158H610.459ZM610.459 88.144L610.201 87.9287L610.123 88.0222V88.144H610.459ZM645.387 81.3L645.281 81.619L645.723 81.7666V81.3H645.387ZM645.387 40.708H645.723V40.3717H645.387V40.708ZM610.459 56.52H610.123V57.4291L610.714 56.7389L610.459 56.52ZM610.459 44.012H610.795V43.6757H610.459V44.012ZM567.979 44.012V43.6757H567.643V44.012H567.979ZM567.979 158H567.643V158.336H567.979V158ZM610.795 158V88.144H610.123V158H610.795ZM610.717 88.3593C613.013 85.6049 617.005 83.6229 621.583 82.3317C626.151 81.0433 631.253 80.4563 635.711 80.4563V79.7837C631.201 79.7837 626.037 80.3767 621.401 81.6843C616.775 82.9891 612.625 85.0191 610.201 87.9287L610.717 88.3593ZM635.711 80.4563C639.705 80.4563 643.205 80.9271 645.281 81.619L645.493 80.9809C643.321 80.2569 639.741 79.7837 635.711 79.7837V80.4563ZM645.723 81.3V40.708H645.051V81.3H645.723ZM645.387 40.3717C638.836 40.3717 631.825 42.2761 625.568 45.212C619.311 48.1475 613.782 52.1266 610.204 56.3011L610.714 56.7389C614.216 52.6534 619.661 48.7265 625.853 45.821C632.045 42.9159 638.958 41.0443 645.387 41.0443V40.3717ZM610.795 56.52V44.012H610.123V56.52H610.795ZM610.459 43.6757H567.979V44.3483H610.459V43.6757ZM567.643 44.012V158H568.315V44.012H567.643ZM567.979 158.336H610.459V157.664H567.979V158.336ZM766.056 146.672L766.275 146.928L766.502 146.734L766.336 146.485L766.056 146.672ZM748.592 120.476L748.872 120.289L748.659 119.97L748.371 120.223L748.592 120.476ZM697.852 114.104V113.768H697.39L697.532 114.207L697.852 114.104ZM775.26 114.104V114.44H775.596V114.104H775.26ZM734.904 87.2V87.5363H735.33L735.231 87.1221L734.904 87.2ZM697.38 87.2L697.056 87.1115L696.94 87.5363H697.38V87.2ZM717.44 161.168C725.964 161.168 735.315 160.044 743.96 157.705C752.601 155.367 760.559 151.81 766.275 146.928L765.838 146.416C760.225 151.21 752.371 154.733 743.784 157.056C735.201 159.378 725.909 160.496 717.44 160.496V161.168ZM766.336 146.485L748.872 120.289L748.312 120.663L765.776 146.859L766.336 146.485ZM748.371 120.223C745.599 122.648 740.706 124.638 735.67 126.022C730.644 127.404 725.543 128.164 722.396 128.164V128.836C725.622 128.836 730.786 128.062 735.849 126.671C740.902 125.282 745.921 123.26 748.814 120.729L748.371 120.223ZM722.396 128.164C708.59 128.164 700.479 121.152 698.172 114.001L697.532 114.207C699.945 121.688 708.355 128.836 722.396 128.836V128.164ZM697.852 114.44H775.26V113.768H697.852V114.44ZM775.596 114.104V105.372H774.924V114.104H775.596ZM775.596 105.372C775.596 85.2387 769.141 69.1026 758.451 57.9978C747.762 46.8928 732.863 40.8437 716.024 40.8437V41.5163C732.697 41.5163 747.416 47.5032 757.967 58.4642C768.518 69.4254 774.924 85.3853 774.924 105.372H775.596ZM716.024 40.8437C679.026 40.8437 653.62 67.6588 653.62 100.888H654.292C654.292 68.0372 679.39 41.5163 716.024 41.5163V40.8437ZM653.62 100.888C653.62 119.739 660.617 134.818 672.109 145.181C683.597 155.541 699.553 161.168 717.44 161.168V160.496C699.691 160.496 683.905 154.913 672.56 144.682C661.219 134.454 654.292 119.561 654.292 100.888H653.62ZM734.904 86.8637H697.38V87.5363H734.904V86.8637ZM697.705 87.2885C698.404 84.7257 699.797 81.3666 702.6 78.6505C705.394 75.9424 709.615 73.8483 716.024 73.8483V73.1757C709.453 73.1757 705.06 75.3296 702.132 78.1675C699.211 80.9974 697.773 84.4823 697.056 87.1115L697.705 87.2885ZM716.024 73.8483C722.789 73.8483 727.127 76.0031 729.919 78.7378C732.72 81.4804 733.995 84.8358 734.577 87.2779L735.231 87.1221C734.633 84.6082 733.312 81.1196 730.39 78.2572C727.459 75.3869 722.947 73.1757 716.024 73.1757V73.8483ZM150.688 365V365.336H151.353L150.958 364.801L150.688 365ZM88.6195 280.748L88.3586 280.536L88.1944 280.738L88.3488 280.947L88.6195 280.748ZM148.092 207.588L148.353 207.8L148.798 207.252H148.092V207.588ZM89.7995 207.588V207.252H89.6244L89.524 207.395L89.7995 207.588ZM48.4995 266.588H48.1632V267.655L48.775 266.781L48.4995 266.588ZM48.4995 207.588H48.8358V207.252H48.4995V207.588ZM0.82753 207.588V207.252H0.491211V207.588H0.82753ZM0.82753 365H0.491211V365.336H0.82753V365ZM48.4995 365V365.336H48.8358V365H48.4995ZM48.4995 321.34L48.2292 321.14L48.1632 321.229V321.34H48.4995ZM57.2315 309.54L57.515 309.359L57.252 308.947L56.9612 309.34L57.2315 309.54ZM92.6315 365L92.3481 365.181L92.4472 365.336H92.6315V365ZM150.958 364.801L88.8903 280.549L88.3488 280.947L150.417 365.199L150.958 364.801ZM88.8805 280.96L148.353 207.8L147.831 207.376L88.3586 280.536L88.8805 280.96ZM148.092 207.252H89.7995V207.924H148.092V207.252ZM89.524 207.395L48.224 266.395L48.775 266.781L90.075 207.781L89.524 207.395ZM48.8358 266.588V207.588H48.1632V266.588H48.8358ZM48.4995 207.252H0.82753V207.924H48.4995V207.252ZM0.491211 207.588V365H1.16383V207.588H0.491211ZM0.82753 365.336H48.4995V364.664H0.82753V365.336ZM48.8358 365V321.34H48.1632V365H48.8358ZM48.7699 321.54L57.5019 309.74L56.9612 309.34L48.2292 321.14L48.7699 321.54ZM56.948 309.721L92.3481 365.181L92.915 364.819L57.515 309.359L56.948 309.721ZM92.6315 365.336H150.688V364.664H92.6315V365.336ZM202.504 365V365.336H202.84V365H202.504ZM202.504 295.144L202.245 294.929L202.167 295.022V295.144H202.504ZM237.432 288.3L237.325 288.619L237.768 288.767V288.3H237.432ZM237.432 247.708H237.768V247.372H237.432V247.708ZM202.504 263.52H202.167V264.429L202.759 263.739L202.504 263.52ZM202.504 251.012H202.84V250.676H202.504V251.012ZM160.024 251.012V250.676H159.687V251.012H160.024ZM160.024 365H159.687V365.336H160.024V365ZM202.84 365V295.144H202.167V365H202.84ZM202.762 295.359C205.057 292.605 209.05 290.623 213.628 289.332C218.196 288.043 223.298 287.456 227.756 287.456V286.784C223.245 286.784 218.081 287.377 213.445 288.684C208.819 289.989 204.67 292.019 202.245 294.929L202.762 295.359ZM227.756 287.456C231.75 287.456 235.249 287.927 237.325 288.619L237.538 287.981C235.366 287.257 231.785 286.784 227.756 286.784V287.456ZM237.768 288.3V247.708H237.095V288.3H237.768ZM237.432 247.372C230.881 247.372 223.87 249.276 217.612 252.212C211.356 255.147 205.826 259.127 202.248 263.301L202.759 263.739C206.261 259.653 211.705 255.727 217.898 252.821C224.09 249.916 231.003 248.044 237.432 248.044V247.372ZM202.84 263.52V251.012H202.167V263.52H202.84ZM202.504 250.676H160.024V251.348H202.504V250.676ZM159.687 251.012V365H160.36V251.012H159.687ZM160.024 365.336H202.504V364.664H160.024V365.336ZM309.957 368.168C350.735 368.168 374.485 339.933 374.485 307.888H373.812C373.812 339.563 350.362 367.496 309.957 367.496V368.168ZM374.485 307.888C374.485 275.841 350.733 247.844 309.957 247.844V248.516C350.364 248.516 373.812 276.215 373.812 307.888H374.485ZM309.957 247.844C269.415 247.844 245.664 275.842 245.664 307.888H246.337C246.337 276.214 269.786 248.516 309.957 248.516V247.844ZM245.664 307.888C245.664 339.932 269.413 368.168 309.957 368.168V367.496C269.788 367.496 246.337 339.564 246.337 307.888H245.664ZM309.957 329.972C303.557 329.972 298.579 327.59 295.196 323.658C291.808 319.719 289.997 314.198 289.997 307.888H289.324C289.324 314.322 291.171 320.011 294.686 324.096C298.206 328.188 303.376 330.644 309.957 330.644V329.972ZM289.997 307.888C289.997 301.697 291.807 296.235 295.195 292.326C298.578 288.422 303.557 286.04 309.957 286.04V285.368C303.376 285.368 298.207 287.824 294.687 291.885C291.172 295.941 289.324 301.571 289.324 307.888H289.997ZM309.957 286.04C316.476 286.04 321.514 288.424 324.925 292.327C328.342 296.236 330.152 301.697 330.152 307.888H330.825C330.825 301.571 328.977 295.94 325.432 291.884C321.881 287.822 316.653 285.368 309.957 285.368V286.04ZM330.152 307.888C330.152 314.198 328.341 319.719 324.925 323.657C321.513 327.588 316.476 329.972 309.957 329.972V330.644C316.653 330.644 321.882 328.19 325.433 324.097C328.978 320.011 330.825 314.322 330.825 307.888H330.152ZM579.896 365V365.336H580.232V365H579.896ZM504.848 268.24L504.532 268.356L504.76 268.978L505.128 268.427L504.848 268.24ZM434.284 263.992H433.947V264.972L434.549 264.198L434.284 263.992ZM434.284 251.012H434.62V250.676H434.284V251.012ZM391.804 251.012V250.676H391.467V251.012H391.804ZM391.804 365H391.467V365.336H391.804V365ZM434.284 365V365.336H434.62V365H434.284ZM434.284 294.672L434.028 294.453L433.947 294.548V294.672H434.284ZM464.492 365H464.155V365.336H464.492V365ZM506.972 365V365.336H507.308V365H506.972ZM506.972 294.672L506.716 294.453L506.635 294.548V294.672H506.972ZM537.416 365H537.079V365.336H537.416V365ZM580.232 365V282.4H579.559V365H580.232ZM580.232 282.4C580.232 270.531 576.669 261.875 570.416 256.191C564.169 250.512 555.286 247.844 544.732 247.844V248.516C555.181 248.516 563.88 251.158 569.964 256.689C576.042 262.215 579.559 270.669 579.559 282.4H580.232ZM544.732 247.844C526.205 247.844 511.235 258.053 504.568 268.053L505.128 268.427C511.677 258.603 526.443 248.516 544.732 248.516V247.844ZM505.163 268.124C502.543 260.978 498.306 255.898 492.687 252.61C487.073 249.325 480.106 247.844 472.044 247.844V248.516C480.029 248.516 486.868 249.985 492.347 253.19C497.82 256.392 501.96 261.342 504.532 268.356L505.163 268.124ZM472.044 247.844C453.534 247.844 439.039 257.33 434.018 263.786L434.549 264.198C439.44 257.91 453.737 248.516 472.044 248.516V247.844ZM434.62 263.992V251.012H433.947V263.992H434.62ZM434.284 250.676H391.804V251.348H434.284V250.676ZM391.467 251.012V365H392.14V251.012H391.467ZM391.804 365.336H434.284V364.664H391.804V365.336ZM434.62 365V294.672H433.947V365H434.62ZM434.539 294.891C437.362 291.598 442.467 286.04 451.512 286.04V285.368C442.149 285.368 436.87 291.138 434.028 294.453L434.539 294.891ZM451.512 286.04C456.279 286.04 459.421 287.491 461.377 289.731C463.341 291.979 464.155 295.074 464.155 298.448H464.828C464.828 294.978 463.991 291.701 461.883 289.288C459.769 286.867 456.421 285.368 451.512 285.368V286.04ZM464.155 298.448V365H464.828V298.448H464.155ZM464.492 365.336H506.972V364.664H464.492V365.336ZM507.308 365V294.672H506.635V365H507.308ZM507.227 294.891C510.048 291.6 515.153 286.04 524.436 286.04V285.368C514.838 285.368 509.56 291.136 506.716 294.453L507.227 294.891ZM524.436 286.04C529.082 286.04 532.227 287.49 534.214 289.733C536.208 291.983 537.079 295.079 537.079 298.448H537.752C537.752 294.973 536.853 291.697 534.717 289.286C532.575 286.868 529.229 285.368 524.436 285.368V286.04ZM537.079 298.448V365H537.752V298.448H537.079ZM537.416 365.336H579.896V364.664H537.416V365.336ZM647.892 365V365.336H648.229V365H647.892ZM647.892 251.012H648.229V250.676H647.892V251.012ZM605.412 251.012V250.676H605.076V251.012H605.412ZM605.412 365H605.076V365.336H605.412V365ZM626.652 243.088C640.054 243.088 650.825 232.318 650.825 218.916H650.152C650.152 231.946 639.683 242.416 626.652 242.416V243.088ZM650.825 218.916C650.825 205.514 640.054 194.744 626.652 194.744V195.416C639.683 195.416 650.152 205.886 650.152 218.916H650.825ZM626.652 194.744C613.251 194.744 602.48 205.514 602.48 218.916H603.153C603.153 205.886 613.622 195.416 626.652 195.416V194.744ZM602.48 218.916C602.48 232.318 613.251 243.088 626.652 243.088V242.416C613.622 242.416 603.153 231.946 603.153 218.916H602.48ZM648.229 365V251.012H647.556V365H648.229ZM647.892 250.676H605.412V251.348H647.892V250.676ZM605.076 251.012V365H605.749V251.012H605.076ZM605.412 365.336H647.892V364.664H605.412V365.336ZM793.017 365V365.336H793.353V365H793.017ZM715.845 263.992H715.509V264.887L716.098 264.213L715.845 263.992ZM715.845 251.012H716.181V250.676H715.845V251.012ZM673.365 251.012V250.676H673.029V251.012H673.365ZM673.365 365H673.029V365.336H673.365V365ZM715.845 365V365.336H716.181V365H715.845ZM715.845 294.672L715.593 294.449L715.509 294.545V294.672H715.845ZM750.537 365H750.201V365.336H750.537V365ZM793.353 365V284.052H792.681V365H793.353ZM793.353 284.052C793.353 274.077 790.443 265.017 784.174 258.45C777.902 251.879 768.307 247.844 755.021 247.844V248.516C768.167 248.516 777.57 252.505 783.688 258.914C789.809 265.327 792.681 274.203 792.681 284.052H793.353ZM755.021 247.844C734.859 247.844 722.26 256.149 715.592 263.771L716.098 264.213C722.645 256.731 735.063 248.516 755.021 248.516V247.844ZM716.181 263.992V251.012H715.509V263.992H716.181ZM715.845 250.676H673.365V251.348H715.845V250.676ZM673.029 251.012V365H673.701V251.012H673.029ZM673.365 365.336H715.845V364.664H673.365V365.336ZM716.181 365V294.672H715.509V365H716.181ZM716.097 294.895C719.617 290.906 724.488 286.04 734.017 286.04V285.368C724.194 285.368 719.153 290.414 715.593 294.449L716.097 294.895ZM734.017 286.04C739.049 286.04 743.082 287.153 745.856 289.67C748.625 292.182 750.201 296.147 750.201 301.988H750.873C750.873 296.029 749.263 291.852 746.308 289.172C743.36 286.497 739.133 285.368 734.017 285.368V286.04ZM750.201 301.988V365H750.873V301.988H750.201ZM750.537 365.336H793.017V364.664H750.537V365.336Z" fill="#B84FF8"/>
</svg>
